<?xml version="1.0" encoding="UTF-8" standalone="no"?>
<!-- Created with Inkscape (http://www.inkscape.org/) -->

<svg
   width="119.10228mm"
   height="32.566875mm"
   viewBox="0 0 119.10228 32.566875"
   version="1.1"
   id="svg178751"
   inkscape:version="1.1 (c68e22c387, 2021-05-23)"
   sodipodi:docname="Logo4.svg"
   xmlns:inkscape="http://www.inkscape.org/namespaces/inkscape"
   xmlns:sodipodi="http://sodipodi.sourceforge.net/DTD/sodipodi-0.dtd"
   xmlns="http://www.w3.org/2000/svg"
   xmlns:svg="http://www.w3.org/2000/svg">
  <sodipodi:namedview
     id="namedview178753"
     pagecolor="#ffffff"
     bordercolor="#111111"
     borderopacity="1"
     inkscape:pageshadow="0"
     inkscape:pageopacity="0"
     inkscape:pagecheckerboard="1"
     inkscape:document-units="mm"
     showgrid="false"
     inkscape:zoom="2.0899939"
     inkscape:cx="225.59874"
     inkscape:cy="37.081448"
     inkscape:window-width="1366"
     inkscape:window-height="705"
     inkscape:window-x="-8"
     inkscape:window-y="-8"
     inkscape:window-maximized="1"
     inkscape:current-layer="layer1" />
  <defs
     id="defs178748" />
  <g
     inkscape:label="Layer 1"
     inkscape:groupmode="layer"
     id="layer1"
     transform="translate(-44.582986,-52.279562)">
    <g
       id="g240232">
      <text
         xml:space="preserve"
         style="font-style:normal;font-weight:normal;font-size:5.75608px;line-height:1.25;font-family:sans-serif;fill:#288a4f;fill-opacity:1;stroke:none;stroke-width:0.143902"
         x="158.37607"
         y="61.376381"
         id="text194418"><tspan
           sodipodi:role="line"
           id="tspan194416"
           style="fill:#288a4f;fill-opacity:1;stroke-width:0.143902"
           x="158.37607"
           y="61.376381">®</tspan></text>
      <g
         aria-label="reet Med"
         transform="matrix(0.95299313,0,0,1.0493255,54.504199,0)"
         id="text183946"
         style="font-size:13.211px;line-height:1.25;fill:#288a4f;fill-opacity:1;stroke-width:0.330277">
        <path
           d="m 55.919426,61.487117 c 0,0 -1.145789,-0.129873 -1.721827,0.125911 -0.348337,0.163417 -0.683772,0.880582 -1.006307,1.14291 v 4.6111 h -1.212724 v -7.205414 h 1.212728 v 1.064363 c 0.481651,-0.387041 0.905246,-0.66012 1.270785,-0.819237 0.937032,-0.411077 1.43629,-0.231555 2.012613,0.345766 z"
           id="path205524"
           sodipodi:nodetypes="ccccccccccc"
           style="fill:#288a4f;fill-opacity:1" />
        <path
           d="m 63.092587,63.890116 h -5.308913 q 0,0.664421 0.199971,1.161123 0.199971,0.490252 0.548308,0.806336 0.335436,0.309633 0.793434,0.464449 0.464449,0.154817 1.019208,0.154817 0.735378,0 1.477207,-0.290281 0.748279,-0.296732 1.064363,-0.580562 h 0.06451 v 1.32239 q -0.612815,0.258028 -1.251433,0.432196 -0.638618,0.174169 -1.341742,0.174169 -1.79329,0 -2.799597,-0.967603 -1.006307,-0.974053 -1.006307,-2.760893 0,-1.767487 0.961152,-2.806047 0.967603,-1.03856 2.54157,-1.03856 1.457854,0 2.244837,0.85149 0.793435,0.85149 0.793435,2.419007 z m -1.180476,-0.928898 q -0.0065,-0.954701 -0.483801,-1.477207 -0.4709,-0.522505 -1.438502,-0.522505 -0.974054,0 -1.554615,0.574111 -0.574111,0.574111 -0.651519,1.425601 z"
           id="path205526"
           style="fill:#288a4f;fill-opacity:1" />
        <path
           d="m 71.307459,63.890116 h -5.308913 q 0,0.664421 0.199971,1.161123 0.199971,0.490252 0.548308,0.806336 0.335436,0.309633 0.793434,0.464449 0.464449,0.154817 1.019208,0.154817 0.735378,0 1.477207,-0.290281 0.748279,-0.296732 1.064363,-0.580562 h 0.06451 v 1.32239 q -0.612814,0.258028 -1.251432,0.432196 -0.638618,0.174169 -1.341742,0.174169 -1.793291,0 -2.799597,-0.967603 -1.006307,-0.974053 -1.006307,-2.760893 0,-1.767487 0.961152,-2.806047 0.967603,-1.03856 2.541569,-1.03856 1.457855,0 2.244838,0.85149 0.793435,0.85149 0.793435,2.419007 z m -1.180476,-0.928898 q -0.0065,-0.954701 -0.483801,-1.477207 -0.4709,-0.522505 -1.438502,-0.522505 -0.974054,0 -1.554615,0.574111 -0.574111,0.574111 -0.651519,1.425601 z"
           id="path205528"
           style="fill:#288a4f;fill-opacity:1" />
        <path
           d="m 77.097532,67.302528 q -0.341887,0.09031 -0.74828,0.148366 -0.399942,0.05806 -0.716026,0.05806 -1.103067,0 -1.677177,-0.593463 -0.574111,-0.593463 -0.574111,-1.902952 v -3.831706 h -0.819237 v -1.019208 h 0.819237 v -2.070669 h 1.212728 v 2.070669 h 2.502866 v 1.019208 h -2.502866 v 3.283398 q 0,0.56766 0.0258,0.890195 0.0258,0.316083 0.180619,0.593462 0.141915,0.258028 0.387041,0.380591 0.251577,0.116112 0.761181,0.116112 0.296731,0 0.619266,-0.08386 0.322534,-0.09031 0.464449,-0.148365 h 0.06451 z"
           id="path205530"
           style="fill:#288a4f;fill-opacity:1" />
        <path
           d="m 91.301427,67.367035 h -1.277235 v -8.276227 l -3.225851,8.152908 h -0.97086 l -3.259205,-8.6572 -0.0094,8.780519 h -1.236149 v -9.605068 h 1.92031 l 3.146883,8.37337 3.137613,-8.37337 h 1.773938 z"
           id="path205532"
           sodipodi:nodetypes="cccccccccccccc"
           style="fill:#288a4f;fill-opacity:1" />
        <path
           d="m 99.501786,63.890116 h -5.308913 q 0,0.664421 0.199971,1.161123 0.199972,0.490252 0.548309,0.806336 0.335435,0.309633 0.793434,0.464449 0.464449,0.154817 1.019208,0.154817 0.735378,0 1.477206,-0.290281 0.74828,-0.296732 1.064363,-0.580562 h 0.06451 v 1.32239 q -0.612815,0.258028 -1.251433,0.432196 -0.638617,0.174169 -1.341742,0.174169 -1.79329,0 -2.799597,-0.967603 -1.006306,-0.974053 -1.006306,-2.760893 0,-1.767487 0.961152,-2.806047 0.967602,-1.03856 2.541569,-1.03856 1.457855,0 2.244838,0.85149 0.793434,0.85149 0.793434,2.419007 z m -1.180475,-0.928898 q -0.0065,-0.954701 -0.483801,-1.477207 -0.4709,-0.522505 -1.438503,-0.522505 -0.974053,0 -1.554615,0.574111 -0.574111,0.574111 -0.651519,1.425601 z"
           id="path205534"
           style="fill:#288a4f;fill-opacity:1" />
        <path
           d="m 107.4991,67.367035 h -1.21273 v -0.75473 q -0.52251,0.451548 -1.09017,0.703124 -0.56766,0.251577 -1.23208,0.251577 -1.29014,0 -2.05132,-0.993405 -0.75473,-0.993406 -0.75473,-2.754442 0,-0.915997 0.25803,-1.632023 0.26448,-0.716026 0.70958,-1.219179 0.43864,-0.490252 1.0192,-0.74828 0.58702,-0.258027 1.21273,-0.258027 0.56766,0 1.00631,0.122563 0.43865,0.116112 0.92245,0.367689 v -3.122131 h 1.21273 z m -1.21273,-1.773938 v -4.134888 q -0.49026,-0.219324 -0.8773,-0.303183 -0.38704,-0.08386 -0.84504,-0.08386 -1.0192,0 -1.58686,0.709575 -0.56766,0.709575 -0.56766,2.012613 0,1.283686 0.43864,1.954557 0.43865,0.664421 1.40625,0.664421 0.51606,0 1.04501,-0.225774 0.52896,-0.232225 0.98696,-0.593463 z"
           id="path205536"
           style="fill:#288a4f;fill-opacity:1" />
      </g>
      <text
         xml:space="preserve"
         style="font-style:normal;font-weight:normal;font-size:13.0238px;line-height:1.25;font-family:sans-serif;fill:#f5821f;fill-opacity:1;stroke:none;stroke-width:0.325595"
         x="98.253815"
         y="82.888206"
         id="text184588"
         transform="scale(0.97924376,1.0211962)"><tspan
           sodipodi:role="line"
           id="tspan184586"
           style="fill:#f5821f;fill-opacity:1;stroke-width:0.325595"
           x="98.253815"
           y="82.888206"><tspan
   style="font-style:normal;font-variant:normal;font-weight:normal;font-stretch:normal;font-family:Arial;-inkscape-font-specification:Arial;fill:#f5821f;fill-opacity:1;stroke-width:0.325595"
   id="tspan184842">I</tspan>ndonesia</tspan></text>
      <g
         aria-label="G"
         transform="matrix(0.73993134,0,0,1.3514768,54.504199,0)"
         id="text201040"
         style="font-size:19.0929px;line-height:1.25;fill:#288a4f;fill-opacity:1;stroke-width:0.477323">
        <path
           d="m 63.611324,52.107954 c -9.394518,-0.09702 -12.343988,-4.456725 -12.371229,-6.712335 -0.0472,-4.191828 5.659886,-6.41082 11.646751,-6.712334 -0.108924,1.229088 -0.167809,1.016195 -0.167809,1.016195 0,0 -5.588818,0.09295 -8.206673,2.76879 -0.901195,0.994422 -1.351792,1.168466 -1.351792,2.871413 0,1.796175 0.47235,2.019939 1.417051,3.020576 1.496867,1.279953 3.466194,2.010106 7.206488,2.695001 l -3.7e-5,-4.848552 h -3.004603 v -1.230604 h 4.831853 z"
           id="path202079"
           sodipodi:nodetypes="cccccsccccccc"
           style="fill:#288a4f;fill-opacity:1" />
      </g>
      <g
         id="g182468"
         transform="translate(-1.0583331,22.225008)">
        <g
           id="g20006"
           transform="matrix(0.2414581,0,0,0.2414581,62.658959,30.519288)">
          <g
             id="g19998">
            <ellipse
               style="fill:#f5821f;fill-opacity:1;stroke-width:0.200067"
               id="path239-0"
               cx="41.147842"
               cy="86.619759"
               rx="17.65871"
               ry="17.974047" />
            <path
               style="fill:#15a44f;fill-opacity:1;stroke:none;stroke-width:0.264583px;stroke-linecap:butt;stroke-linejoin:miter;stroke-opacity:1"
               d="m 52.544484,12.815464 c 0,0 -18.689583,0.188402 -21.353293,21.317018 -5.023862,39.849398 30.859458,75.404698 30.859458,75.404698 0,0 -38.007999,-36.501398 -35.307669,-72.839445 C 28.730345,9.9539941 52.544484,12.815464 52.544484,12.815464 Z"
               id="path8295" />
          </g>
          <g
             id="g19994">
            <path
               style="fill:#15a44f;fill-opacity:1;stroke:none;stroke-width:0.276001px;stroke-linecap:butt;stroke-linejoin:miter;stroke-opacity:1"
               d="m 85.183783,119.9998 c 0,0 20.544957,-0.39258 21.944047,-22.563379 2.68045,-42.475832 -33.348812,-78.174807 -33.348812,-78.174807 0,0 40.206052,37.487112 37.949012,75.43065 C 110.06691,122.61769 85.183783,119.9998 85.183783,119.9998 Z"
               id="path8295-6" />
            <ellipse
               style="opacity:1;fill:#f5821f;fill-opacity:1;stroke-width:0.261488"
               id="path239"
               cx="91.540993"
               cy="48.540154"
               rx="23.079967"
               ry="23.492111" />
          </g>
        </g>
        <circle
           style="fill:#f5821f;fill-opacity:1;fill-rule:evenodd;stroke-width:0.264583"
           id="path178827"
           cx="58.271618"
           cy="55.783829"
           r="2.3921025" />
        <circle
           style="fill:#f5821f;fill-opacity:1;fill-rule:evenodd;stroke-width:0.148166"
           id="path178827-7"
           cx="46.980896"
           cy="52.936546"
           r="1.3395773" />
      </g>
    </g>
  </g>
</svg>
